# xmcd CD database file
#
# Track frame offsets:
#	150
#	16746
#	30701
#	45412
#	59709
#	73753
#	87170
#	100820
#	117303
#	133599
#	149908
#	168440
#	187862
#	203745
#	212596
#	227049
#	245574
#	263820
#	278933
#
# Disc length: 3892 seconds
#
# Revision: 0
# Processed by: cddbd v1.5.1PL0 Copyright (c) Steve Scherf et al.
# Submitted via: CDex 1.51
#
DISCID=170f3213
DTITLE=Various Artist - Playlist4
DYEAR=2005
DGENRE=New Age
TTITLE0=an honest mistake
TTITLE1=Graffiti
TTITLE2=The Game Needed Me
TTITLE3=Winter in the Hamptons
TTITLE4=Come Get Some
TTITLE5=Oh Yeah
TTITLE6=Na Na Na Na Naa
TTITLE7=CONCRETE [BROADWAY]
TTITLE8=EVIL
TTITLE9=Hand Of Blood
TTITLE10=Work,Work,Work[Pub,Club,Sleep]
TTITLE11=Thank You [Playlist Ver.]
TTITLE12=WHAT ARE WE WAITING FOR
TTITLE13=GOD KILLED THE QUEEN
TTITLE14=Tell Me Everything
TTITLE15=F ME MUMMY I FEEL UGLY
TTITLE16=Miss Wanted
TTITLE17=Play The Hits
TTITLE18=SOMEBODY
EXTD=YEAR: 2005
EXTT0=
EXTT1=
EXTT2=
EXTT3=
EXTT4=
EXTT5=
EXTT6=
EXTT7=
EXTT8=
EXTT9=
EXTT10=
EXTT11=
EXTT12=
EXTT13=
EXTT14=
EXTT15=
EXTT16=
EXTT17=
EXTT18=
PLAYORDER=
